<svg width="93" height="21" viewBox="0 0 93 21" fill="none" xmlns="http://www.w3.org/2000/svg">
<path d="M3.54812 8.11364V7.43182L9.03675 4.63636V5.72727L4.82653 7.75568L4.86062 7.6875V7.85795L4.82653 7.78977L9.03675 9.81818V10.9091L3.54812 8.11364ZM11.3049 12V3.27273H16.5719V4.21023H12.3617V7.15909H16.2992V8.09659H12.3617V11.0625H16.6401V12H11.3049ZM22.9767 6.92045L22.0733 7.17614C22.0165 7.02557 21.9327 6.87926 21.8219 6.73722C21.714 6.59233 21.5662 6.47301 21.3787 6.37926C21.1912 6.28551 20.9512 6.23864 20.6586 6.23864C20.258 6.23864 19.9242 6.33097 19.6571 6.51562C19.3929 6.69744 19.2608 6.92898 19.2608 7.21023C19.2608 7.46023 19.3517 7.65767 19.5336 7.80256C19.7154 7.94744 19.9995 8.06818 20.3858 8.16477L21.3574 8.40341C21.9426 8.54545 22.3787 8.76278 22.6657 9.0554C22.9526 9.34517 23.0961 9.71875 23.0961 10.1761C23.0961 10.5511 22.9881 10.8864 22.7722 11.1818C22.5591 11.4773 22.2608 11.7102 21.8773 11.8807C21.4938 12.0511 21.0478 12.1364 20.5392 12.1364C19.8716 12.1364 19.3191 11.9915 18.8816 11.7017C18.4441 11.4119 18.1671 10.9886 18.0506 10.4318L19.0051 10.1932C19.0961 10.5455 19.2679 10.8097 19.5208 10.9858C19.7765 11.1619 20.1103 11.25 20.5222 11.25C20.9909 11.25 21.3631 11.1506 21.6387 10.9517C21.9171 10.75 22.0563 10.5085 22.0563 10.2273C22.0563 10 21.9767 9.80966 21.8176 9.65625C21.6586 9.5 21.4142 9.38352 21.0847 9.30682L19.9938 9.05114C19.3944 8.90909 18.954 8.68892 18.6728 8.39062C18.3944 8.08949 18.2551 7.71307 18.2551 7.26136C18.2551 6.89205 18.3588 6.56534 18.5662 6.28125C18.7765 5.99716 19.062 5.77415 19.4228 5.61222C19.7864 5.45028 20.1983 5.36932 20.6586 5.36932C21.3063 5.36932 21.8148 5.51136 22.1841 5.79545C22.5563 6.07955 22.8205 6.45455 22.9767 6.92045ZM26.536 12.1534C26.1213 12.1534 25.7449 12.0753 25.4068 11.919C25.0687 11.7599 24.8002 11.5312 24.6014 11.233C24.4025 10.9318 24.3031 10.5682 24.3031 10.142C24.3031 9.76705 24.377 9.46307 24.5247 9.23011C24.6724 8.99432 24.8699 8.80966 25.117 8.67614C25.3642 8.54261 25.6369 8.44318 25.9352 8.37784C26.2363 8.30966 26.5389 8.25568 26.8429 8.21591C27.2406 8.16477 27.563 8.12642 27.8102 8.10085C28.0602 8.07244 28.242 8.02557 28.3556 7.96023C28.4721 7.89489 28.5304 7.78125 28.5304 7.61932V7.58523C28.5304 7.16477 28.4153 6.83807 28.1852 6.60511C27.9579 6.37216 27.6127 6.25568 27.1497 6.25568C26.6696 6.25568 26.2931 6.3608 26.0204 6.57102C25.7477 6.78125 25.5559 7.00568 25.4451 7.24432L24.4906 6.90341C24.661 6.50568 24.8883 6.19602 25.1724 5.97443C25.4593 5.75 25.7718 5.59375 26.1099 5.50568C26.4508 5.41477 26.786 5.36932 27.1156 5.36932C27.3258 5.36932 27.5673 5.39489 27.84 5.44602C28.1156 5.49432 28.3812 5.59517 28.6369 5.74858C28.8954 5.90199 29.1099 6.13352 29.2804 6.44318C29.4508 6.75284 29.536 7.16761 29.536 7.6875V12H28.5304V11.1136H28.4792C28.411 11.2557 28.2974 11.4077 28.1383 11.5696C27.9792 11.7315 27.7676 11.8693 27.5034 11.983C27.2392 12.0966 26.9167 12.1534 26.536 12.1534ZM26.6895 11.25C27.0872 11.25 27.4224 11.1719 27.6951 11.0156C27.9707 10.8594 28.1781 10.6577 28.3173 10.4105C28.4593 10.1634 28.5304 9.90341 28.5304 9.63068V8.71023C28.4877 8.76136 28.394 8.80824 28.2491 8.85085C28.1071 8.89062 27.9423 8.92614 27.7548 8.95739C27.5701 8.9858 27.3897 9.01136 27.2136 9.03409C27.0403 9.05398 26.8997 9.07102 26.7917 9.08523C26.5304 9.11932 26.286 9.17472 26.0588 9.25142C25.8343 9.32528 25.6525 9.4375 25.5133 9.58807C25.377 9.7358 25.3088 9.9375 25.3088 10.1932C25.3088 10.5426 25.438 10.8068 25.6966 10.9858C25.9579 11.1619 26.2889 11.25 26.6895 11.25ZM35.4966 9.32386V5.45455H36.5023V12H35.4966V10.892H35.4284C35.275 11.2244 35.0364 11.5071 34.7125 11.7401C34.3887 11.9702 33.9796 12.0852 33.4853 12.0852C33.0762 12.0852 32.7125 11.9957 32.3944 11.8168C32.0762 11.6349 31.8262 11.3622 31.6444 10.9986C31.4625 10.6321 31.3716 10.1705 31.3716 9.61364V5.45455H32.3773V9.54545C32.3773 10.0227 32.5108 10.4034 32.7779 10.6875C33.0478 10.9716 33.3915 11.1136 33.8091 11.1136C34.0591 11.1136 34.3134 11.0497 34.5719 10.9219C34.8333 10.794 35.052 10.598 35.2282 10.3338C35.4071 10.0696 35.4966 9.73295 35.4966 9.32386ZM41.8556 3.27273H43.117L46.0829 10.517H46.1852L49.1511 3.27273H50.4125V12H49.4238V5.36932H49.3386L46.6113 12H45.6568L42.9295 5.36932H42.8443V12H41.8556V3.27273ZM54.3212 12.1534C53.9064 12.1534 53.53 12.0753 53.1919 11.919C52.8539 11.7599 52.5854 11.5312 52.3865 11.233C52.1877 10.9318 52.0882 10.5682 52.0882 10.142C52.0882 9.76705 52.1621 9.46307 52.3098 9.23011C52.4576 8.99432 52.655 8.80966 52.9022 8.67614C53.1493 8.54261 53.4221 8.44318 53.7203 8.37784C54.0215 8.30966 54.324 8.25568 54.628 8.21591C55.0257 8.16477 55.3482 8.12642 55.5953 8.10085C55.8453 8.07244 56.0272 8.02557 56.1408 7.96023C56.2573 7.89489 56.3155 7.78125 56.3155 7.61932V7.58523C56.3155 7.16477 56.2005 6.83807 55.9703 6.60511C55.7431 6.37216 55.3979 6.25568 54.9348 6.25568C54.4547 6.25568 54.0783 6.3608 53.8056 6.57102C53.5328 6.78125 53.3411 7.00568 53.2303 7.24432L52.2757 6.90341C52.4462 6.50568 52.6735 6.19602 52.9576 5.97443C53.2445 5.75 53.557 5.59375 53.8951 5.50568C54.236 5.41477 54.5712 5.36932 54.9007 5.36932C55.111 5.36932 55.3525 5.39489 55.6252 5.44602C55.9007 5.49432 56.1664 5.59517 56.4221 5.74858C56.6806 5.90199 56.8951 6.13352 57.0655 6.44318C57.236 6.75284 57.3212 7.16761 57.3212 7.6875V12H56.3155V11.1136H56.2644C56.1962 11.2557 56.0826 11.4077 55.9235 11.5696C55.7644 11.7315 55.5527 11.8693 55.2885 11.983C55.0243 12.0966 54.7019 12.1534 54.3212 12.1534ZM54.4746 11.25C54.8723 11.25 55.2076 11.1719 55.4803 11.0156C55.7559 10.8594 55.9632 10.6577 56.1025 10.4105C56.2445 10.1634 56.3155 9.90341 56.3155 9.63068V8.71023C56.2729 8.76136 56.1792 8.80824 56.0343 8.85085C55.8922 8.89062 55.7275 8.92614 55.54 8.95739C55.3553 8.9858 55.1749 9.01136 54.9988 9.03409C54.8255 9.05398 54.6848 9.07102 54.5769 9.08523C54.3155 9.11932 54.0712 9.17472 53.8439 9.25142C53.6195 9.32528 53.4377 9.4375 53.2985 9.58807C53.1621 9.7358 53.0939 9.9375 53.0939 10.1932C53.0939 10.5426 53.2232 10.8068 53.4817 10.9858C53.7431 11.1619 54.074 11.25 54.4746 11.25ZM62.0034 5.45455V6.30682H58.6113V5.45455H62.0034ZM59.6 3.88636H60.6056V10.125C60.6056 10.4091 60.6468 10.6222 60.7292 10.7642C60.8145 10.9034 60.9224 10.9972 61.0531 11.0455C61.1866 11.0909 61.3272 11.1136 61.475 11.1136C61.5858 11.1136 61.6767 11.108 61.7477 11.0966C61.8187 11.0824 61.8755 11.071 61.9181 11.0625L62.1227 11.9659C62.0545 11.9915 61.9593 12.017 61.8372 12.0426C61.715 12.071 61.5602 12.0852 61.3727 12.0852C61.0886 12.0852 60.8102 12.0241 60.5375 11.902C60.2676 11.7798 60.0431 11.5938 59.8642 11.3438C59.688 11.0938 59.6 10.7784 59.6 10.3977V3.88636ZM63.5162 12V5.45455H64.5218V12H63.5162ZM64.0275 4.36364C63.8315 4.36364 63.6625 4.29688 63.5204 4.16335C63.3812 4.02983 63.3116 3.86932 63.3116 3.68182C63.3116 3.49432 63.3812 3.33381 63.5204 3.20028C63.6625 3.06676 63.8315 3 64.0275 3C64.2235 3 64.3912 3.06676 64.5304 3.20028C64.6724 3.33381 64.7434 3.49432 64.7434 3.68182C64.7434 3.86932 64.6724 4.02983 64.5304 4.16335C64.3912 4.29688 64.2235 4.36364 64.0275 4.36364ZM68.29 12.1534C67.8752 12.1534 67.4988 12.0753 67.1607 11.919C66.8226 11.7599 66.5542 11.5312 66.3553 11.233C66.1564 10.9318 66.057 10.5682 66.057 10.142C66.057 9.76705 66.1309 9.46307 66.2786 9.23011C66.4263 8.99432 66.6238 8.80966 66.8709 8.67614C67.1181 8.54261 67.3908 8.44318 67.6891 8.37784C67.9902 8.30966 68.2928 8.25568 68.5968 8.21591C68.9945 8.16477 69.3169 8.12642 69.5641 8.10085C69.8141 8.07244 69.9959 8.02557 70.1096 7.96023C70.226 7.89489 70.2843 7.78125 70.2843 7.61932V7.58523C70.2843 7.16477 70.1692 6.83807 69.9391 6.60511C69.7118 6.37216 69.3667 6.25568 68.9036 6.25568C68.4235 6.25568 68.0471 6.3608 67.7743 6.57102C67.5016 6.78125 67.3098 7.00568 67.199 7.24432L66.2445 6.90341C66.415 6.50568 66.6422 6.19602 66.9263 5.97443C67.2132 5.75 67.5257 5.59375 67.8638 5.50568C68.2047 5.41477 68.54 5.36932 68.8695 5.36932C69.0797 5.36932 69.3212 5.39489 69.5939 5.44602C69.8695 5.49432 70.1351 5.59517 70.3908 5.74858C70.6493 5.90199 70.8638 6.13352 71.0343 6.44318C71.2047 6.75284 71.29 7.16761 71.29 7.6875V12H70.2843V11.1136H70.2331C70.165 11.2557 70.0513 11.4077 69.8922 11.5696C69.7331 11.7315 69.5215 11.8693 69.2573 11.983C68.9931 12.0966 68.6706 12.1534 68.29 12.1534ZM68.4434 11.25C68.8411 11.25 69.1763 11.1719 69.449 11.0156C69.7246 10.8594 69.932 10.6577 70.0712 10.4105C70.2132 10.1634 70.2843 9.90341 70.2843 9.63068V8.71023C70.2417 8.76136 70.1479 8.80824 70.003 8.85085C69.861 8.89062 69.6962 8.92614 69.5087 8.95739C69.324 8.9858 69.1436 9.01136 68.9675 9.03409C68.7942 9.05398 68.6536 9.07102 68.5456 9.08523C68.2843 9.11932 68.04 9.17472 67.8127 9.25142C67.5882 9.32528 67.4064 9.4375 67.2672 9.58807C67.1309 9.7358 67.0627 9.9375 67.0627 10.1932C67.0627 10.5426 67.1919 10.8068 67.4505 10.9858C67.7118 11.1619 68.0428 11.25 68.4434 11.25ZM77.7619 6.92045L76.8585 7.17614C76.8017 7.02557 76.7179 6.87926 76.6071 6.73722C76.4991 6.59233 76.3514 6.47301 76.1639 6.37926C75.9764 6.28551 75.7363 6.23864 75.4437 6.23864C75.0431 6.23864 74.7093 6.33097 74.4423 6.51562C74.1781 6.69744 74.046 6.92898 74.046 7.21023C74.046 7.46023 74.1369 7.65767 74.3187 7.80256C74.5005 7.94744 74.7846 8.06818 75.171 8.16477L76.1426 8.40341C76.7278 8.54545 77.1639 8.76278 77.4508 9.0554C77.7377 9.34517 77.8812 9.71875 77.8812 10.1761C77.8812 10.5511 77.7733 10.8864 77.5574 11.1818C77.3443 11.4773 77.046 11.7102 76.6625 11.8807C76.2789 12.0511 75.8329 12.1364 75.3244 12.1364C74.6568 12.1364 74.1042 11.9915 73.6667 11.7017C73.2292 11.4119 72.9522 10.9886 72.8358 10.4318L73.7903 10.1932C73.8812 10.5455 74.0531 10.8097 74.3059 10.9858C74.5616 11.1619 74.8954 11.25 75.3074 11.25C75.7761 11.25 76.1483 11.1506 76.4238 10.9517C76.7022 10.75 76.8414 10.5085 76.8414 10.2273C76.8414 10 76.7619 9.80966 76.6028 9.65625C76.4437 9.5 76.1994 9.38352 75.8699 9.30682L74.7789 9.05114C74.1795 8.90909 73.7392 8.68892 73.4579 8.39062C73.1795 8.08949 73.0403 7.71307 73.0403 7.26136C73.0403 6.89205 73.144 6.56534 73.3514 6.28125C73.5616 5.99716 73.8471 5.77415 74.2079 5.61222C74.5716 5.45028 74.9835 5.36932 75.4437 5.36932C76.0914 5.36932 76.6 5.51136 76.9693 5.79545C77.3414 6.07955 77.6056 6.45455 77.7619 6.92045ZM82.4803 2.86364L79.6678 13.3125H78.7473L81.5598 2.86364H82.4803ZM89.4508 8.93182L83.9622 11.7273V10.6364L88.1724 8.60795L88.1383 8.67614V8.50568L88.1724 8.57386L83.9622 6.54545V5.45455L89.4508 8.25V8.93182Z" fill="url(#paint0_linear_1_4)"/>
<path d="M15.5795 15.1818V15.679H13.5213V15.1818H15.5795ZM14.1377 19V14.6548C14.1377 14.4361 14.1891 14.2538 14.2919 14.108C14.3946 13.9621 14.528 13.8527 14.6921 13.7798C14.8561 13.7069 15.0293 13.6705 15.2116 13.6705C15.3558 13.6705 15.4734 13.6821 15.5646 13.7053C15.6557 13.7285 15.7237 13.75 15.7684 13.7699L15.5994 14.277C15.5696 14.267 15.5281 14.2546 15.4751 14.2397C15.4237 14.2248 15.3558 14.2173 15.2713 14.2173C15.0774 14.2173 14.9373 14.2662 14.8512 14.364C14.7666 14.4618 14.7244 14.6051 14.7244 14.794V19H14.1377ZM16.4017 19V15.1818H16.9684V15.7585H17.0082C17.0778 15.5696 17.2038 15.4163 17.3861 15.2987C17.5683 15.181 17.7738 15.1222 18.0025 15.1222C18.0456 15.1222 18.0995 15.123 18.1641 15.1246C18.2287 15.1263 18.2776 15.1288 18.3108 15.1321V15.7287C18.2909 15.7237 18.2453 15.7163 18.1741 15.7063C18.1044 15.6947 18.0307 15.6889 17.9528 15.6889C17.7672 15.6889 17.6015 15.7279 17.4557 15.8058C17.3115 15.882 17.1971 15.988 17.1126 16.1239C17.0298 16.2582 16.9883 16.4115 16.9883 16.5838V19H16.4017ZM20.4411 19.0795C20.0964 19.0795 19.794 18.9975 19.5338 18.8335C19.2753 18.6694 19.0731 18.4399 18.9272 18.1449C18.7831 17.8499 18.711 17.5052 18.711 17.1108C18.711 16.7131 18.7831 16.3659 18.9272 16.0692C19.0731 15.7726 19.2753 15.5423 19.5338 15.3782C19.794 15.2141 20.0964 15.1321 20.4411 15.1321C20.7858 15.1321 21.0874 15.2141 21.3459 15.3782C21.6061 15.5423 21.8083 15.7726 21.9525 16.0692C22.0983 16.3659 22.1712 16.7131 22.1712 17.1108C22.1712 17.5052 22.0983 17.8499 21.9525 18.1449C21.8083 18.4399 21.6061 18.6694 21.3459 18.8335C21.0874 18.9975 20.7858 19.0795 20.4411 19.0795ZM20.4411 18.5526C20.7029 18.5526 20.9184 18.4854 21.0874 18.3512C21.2564 18.217 21.3816 18.0405 21.4628 17.8217C21.544 17.603 21.5846 17.366 21.5846 17.1108C21.5846 16.8556 21.544 16.6178 21.4628 16.3974C21.3816 16.177 21.2564 15.9988 21.0874 15.8629C20.9184 15.727 20.7029 15.6591 20.4411 15.6591C20.1793 15.6591 19.9638 15.727 19.7948 15.8629C19.6258 15.9988 19.5006 16.177 19.4194 16.3974C19.3382 16.6178 19.2976 16.8556 19.2976 17.1108C19.2976 17.366 19.3382 17.603 19.4194 17.8217C19.5006 18.0405 19.6258 18.217 19.7948 18.3512C19.9638 18.4854 20.1793 18.5526 20.4411 18.5526ZM23.6534 16.7031V19H23.0667V15.1818H23.6335V15.7784H23.6832C23.7727 15.5845 23.9086 15.4287 24.0909 15.3111C24.2732 15.1918 24.5085 15.1321 24.7968 15.1321C25.0554 15.1321 25.2816 15.1851 25.4755 15.2912C25.6693 15.3956 25.8201 15.5547 25.9279 15.7685C26.0356 15.9806 26.0894 16.2491 26.0894 16.5739V19H25.5028V16.6136C25.5028 16.3137 25.4249 16.08 25.2691 15.9126C25.1134 15.7436 24.8996 15.6591 24.6278 15.6591C24.4405 15.6591 24.2732 15.6997 24.1257 15.7809C23.9798 15.8621 23.8647 15.9806 23.7801 16.1364C23.6956 16.2921 23.6534 16.4811 23.6534 16.7031ZM28.822 15.1818V15.679H26.8433V15.1818H28.822ZM27.42 14.267H28.0066V17.9062C28.0066 18.072 28.0306 18.1963 28.0787 18.2791C28.1284 18.3603 28.1914 18.415 28.2676 18.4432C28.3455 18.4697 28.4275 18.483 28.5137 18.483C28.5783 18.483 28.6314 18.4796 28.6728 18.473C28.7142 18.4647 28.7474 18.4581 28.7722 18.4531L28.8916 18.9801C28.8518 18.995 28.7963 19.0099 28.725 19.0249C28.6537 19.0414 28.5634 19.0497 28.4541 19.0497C28.2883 19.0497 28.1259 19.0141 27.9668 18.9428C27.8094 18.8716 27.6785 18.763 27.5741 18.6172C27.4713 18.4714 27.42 18.2874 27.42 18.0653V14.267ZM31.7552 16.544V17.0909H29.5279V16.544H31.7552ZM34.3883 19.0795C34.0204 19.0795 33.703 18.9983 33.4362 18.8359C33.1711 18.6719 32.9664 18.4432 32.8222 18.1499C32.6797 17.8549 32.6084 17.5118 32.6084 17.1207C32.6084 16.7296 32.6797 16.3849 32.8222 16.0866C32.9664 15.7867 33.1669 15.553 33.4238 15.3857C33.6823 15.2166 33.9839 15.1321 34.3286 15.1321C34.5275 15.1321 34.7239 15.1652 34.9177 15.2315C35.1116 15.2978 35.2881 15.4055 35.4472 15.5547C35.6063 15.7022 35.7331 15.8977 35.8275 16.1413C35.922 16.3849 35.9692 16.6849 35.9692 17.0412V17.2898H33.0261V16.7827H35.3726C35.3726 16.5672 35.3296 16.375 35.2434 16.206C35.1589 16.0369 35.0379 15.9035 34.8805 15.8058C34.7247 15.708 34.5407 15.6591 34.3286 15.6591C34.0949 15.6591 33.8928 15.7171 33.7221 15.8331C33.553 15.9474 33.423 16.0966 33.3318 16.2805C33.2407 16.4645 33.1951 16.6617 33.1951 16.8722V17.2102C33.1951 17.4986 33.2448 17.743 33.3442 17.9435C33.4453 18.1424 33.5854 18.294 33.7643 18.3984C33.9433 18.5012 34.1513 18.5526 34.3883 18.5526C34.5424 18.5526 34.6816 18.531 34.8059 18.4879C34.9318 18.4432 35.0404 18.3769 35.1315 18.2891C35.2227 18.1996 35.2931 18.0885 35.3428 17.956L35.9096 18.1151C35.8499 18.3073 35.7497 18.4763 35.6088 18.6222C35.4679 18.7663 35.2939 18.879 35.0868 18.9602C34.8796 19.0398 34.6468 19.0795 34.3883 19.0795ZM37.4483 16.7031V19H36.8616V15.1818H37.4284V15.7784H37.4781C37.5676 15.5845 37.7035 15.4287 37.8858 15.3111C38.0681 15.1918 38.3034 15.1321 38.5918 15.1321C38.8503 15.1321 39.0765 15.1851 39.2704 15.2912C39.4643 15.3956 39.6151 15.5547 39.7228 15.7685C39.8305 15.9806 39.8844 16.2491 39.8844 16.5739V19H39.2977V16.6136C39.2977 16.3137 39.2198 16.08 39.0641 15.9126C38.9083 15.7436 38.6945 15.6591 38.4227 15.6591C38.2355 15.6591 38.0681 15.6997 37.9206 15.7809C37.7748 15.8621 37.6596 15.9806 37.5751 16.1364C37.4905 16.2921 37.4483 16.4811 37.4483 16.7031ZM42.3981 19.0795C42.0799 19.0795 41.7991 18.9992 41.5554 18.8384C41.3118 18.676 41.1213 18.4473 40.9837 18.1523C40.8462 17.8557 40.7774 17.5052 40.7774 17.1009C40.7774 16.6998 40.8462 16.3518 40.9837 16.0568C41.1213 15.7618 41.3127 15.534 41.5579 15.3732C41.8032 15.2125 42.0866 15.1321 42.4081 15.1321C42.6566 15.1321 42.853 15.1735 42.9972 15.2564C43.143 15.3376 43.2541 15.4304 43.3303 15.5348C43.4082 15.6375 43.4687 15.7221 43.5118 15.7884H43.5615V13.9091H44.1481V19H43.5814V18.4134H43.5118C43.4687 18.483 43.4074 18.5708 43.3278 18.6768C43.2483 18.7812 43.1348 18.8749 42.9873 18.9577C42.8398 19.0389 42.6434 19.0795 42.3981 19.0795ZM42.4777 18.5526C42.713 18.5526 42.9119 18.4912 43.0743 18.3686C43.2367 18.2443 43.3601 18.0728 43.4446 17.854C43.5292 17.6336 43.5714 17.3793 43.5714 17.0909C43.5714 16.8059 43.53 16.5565 43.4471 16.3427C43.3643 16.1272 43.2416 15.9599 43.0792 15.8406C42.9168 15.7196 42.7163 15.6591 42.4777 15.6591C42.2291 15.6591 42.0219 15.7229 41.8562 15.8505C41.6922 15.9764 41.5687 16.148 41.4858 16.3651C41.4046 16.5805 41.364 16.8224 41.364 17.0909C41.364 17.3627 41.4055 17.6096 41.4883 17.8317C41.5728 18.0521 41.6971 18.2277 41.8612 18.3587C42.0269 18.4879 42.2324 18.5526 42.4777 18.5526ZM48.7145 19.0795C48.3964 19.0795 48.1155 18.9992 47.8718 18.8384C47.6282 18.676 47.4377 18.4473 47.3001 18.1523C47.1626 17.8557 47.0938 17.5052 47.0938 17.1009C47.0938 16.6998 47.1626 16.3518 47.3001 16.0568C47.4377 15.7618 47.6291 15.534 47.8743 15.3732C48.1196 15.2125 48.403 15.1321 48.7245 15.1321C48.9731 15.1321 49.1694 15.1735 49.3136 15.2564C49.4594 15.3376 49.5705 15.4304 49.6467 15.5348C49.7246 15.6375 49.7851 15.7221 49.8282 15.7884H49.8779V13.9091H50.4645V19H49.8978V18.4134H49.8282C49.7851 18.483 49.7238 18.5708 49.6442 18.6768C49.5647 18.7812 49.4512 18.8749 49.3037 18.9577C49.1562 19.0389 48.9598 19.0795 48.7145 19.0795ZM48.7941 18.5526C49.0294 18.5526 49.2283 18.4912 49.3907 18.3686C49.5531 18.2443 49.6765 18.0728 49.7611 17.854C49.8456 17.6336 49.8878 17.3793 49.8878 17.0909C49.8878 16.8059 49.8464 16.5565 49.7635 16.3427C49.6807 16.1272 49.558 15.9599 49.3956 15.8406C49.2332 15.7196 49.0327 15.6591 48.7941 15.6591C48.5455 15.6591 48.3383 15.7229 48.1726 15.8505C48.0086 15.9764 47.8851 16.148 47.8022 16.3651C47.721 16.5805 47.6804 16.8224 47.6804 17.0909C47.6804 17.3627 47.7219 17.6096 47.8047 17.8317C47.8892 18.0521 48.0135 18.2277 48.1776 18.3587C48.3433 18.4879 48.5488 18.5526 48.7941 18.5526ZM53.2213 19.0795C52.8534 19.0795 52.536 18.9983 52.2692 18.8359C52.0041 18.6719 51.7994 18.4432 51.6552 18.1499C51.5127 17.8549 51.4415 17.5118 51.4415 17.1207C51.4415 16.7296 51.5127 16.3849 51.6552 16.0866C51.7994 15.7867 51.9999 15.553 52.2568 15.3857C52.5153 15.2166 52.8169 15.1321 53.1616 15.1321C53.3605 15.1321 53.5569 15.1652 53.7508 15.2315C53.9446 15.2978 54.1211 15.4055 54.2802 15.5547C54.4393 15.7022 54.5661 15.8977 54.6606 16.1413C54.755 16.3849 54.8022 16.6849 54.8022 17.0412V17.2898H51.8591V16.7827H54.2057C54.2057 16.5672 54.1626 16.375 54.0764 16.206C53.9919 16.0369 53.8709 15.9035 53.7135 15.8058C53.5577 15.708 53.3737 15.6591 53.1616 15.6591C52.928 15.6591 52.7258 15.7171 52.5551 15.8331C52.3861 15.9474 52.256 16.0966 52.1648 16.2805C52.0737 16.4645 52.0281 16.6617 52.0281 16.8722V17.2102C52.0281 17.4986 52.0778 17.743 52.1772 17.9435C52.2783 18.1424 52.4184 18.294 52.5973 18.3984C52.7763 18.5012 52.9843 18.5526 53.2213 18.5526C53.3754 18.5526 53.5146 18.531 53.6389 18.4879C53.7648 18.4432 53.8734 18.3769 53.9645 18.2891C54.0557 18.1996 54.1261 18.0885 54.1758 17.956L54.7426 18.1151C54.6829 18.3073 54.5827 18.4763 54.4418 18.6222C54.3009 18.7663 54.1269 18.879 53.9198 18.9602C53.7126 19.0398 53.4798 19.0795 53.2213 19.0795ZM58.7006 15.1818L57.2887 19H56.6921L55.2801 15.1818H55.9165L56.9705 18.2244H57.0103L58.0642 15.1818H58.7006ZM60.9391 19.0795C60.5712 19.0795 60.2538 18.9983 59.987 18.8359C59.7218 18.6719 59.5172 18.4432 59.373 18.1499C59.2305 17.8549 59.1592 17.5118 59.1592 17.1207C59.1592 16.7296 59.2305 16.3849 59.373 16.0866C59.5172 15.7867 59.7177 15.553 59.9746 15.3857C60.2331 15.2166 60.5347 15.1321 60.8794 15.1321C61.0783 15.1321 61.2746 15.1652 61.4685 15.2315C61.6624 15.2978 61.8389 15.4055 61.998 15.5547C62.1571 15.7022 62.2839 15.8977 62.3783 16.1413C62.4728 16.3849 62.52 16.6849 62.52 17.0412V17.2898H59.5768V16.7827H61.9234C61.9234 16.5672 61.8803 16.375 61.7942 16.206C61.7097 16.0369 61.5887 15.9035 61.4312 15.8058C61.2755 15.708 61.0915 15.6591 60.8794 15.6591C60.6457 15.6591 60.4436 15.7171 60.2729 15.8331C60.1038 15.9474 59.9737 16.0966 59.8826 16.2805C59.7914 16.4645 59.7459 16.6617 59.7459 16.8722V17.2102C59.7459 17.4986 59.7956 17.743 59.895 17.9435C59.9961 18.1424 60.1361 18.294 60.3151 18.3984C60.4941 18.5012 60.7021 18.5526 60.9391 18.5526C61.0932 18.5526 61.2324 18.531 61.3567 18.4879C61.4826 18.4432 61.5912 18.3769 61.6823 18.2891C61.7735 18.1996 61.8439 18.0885 61.8936 17.956L62.4604 18.1151C62.4007 18.3073 62.3004 18.4763 62.1596 18.6222C62.0187 18.7663 61.8447 18.879 61.6376 18.9602C61.4304 19.0398 61.1976 19.0795 60.9391 19.0795ZM63.9991 13.9091V19H63.4124V13.9091H63.9991ZM66.6247 19.0795C66.28 19.0795 65.9776 18.9975 65.7174 18.8335C65.4589 18.6694 65.2567 18.4399 65.1108 18.1449C64.9667 17.8499 64.8946 17.5052 64.8946 17.1108C64.8946 16.7131 64.9667 16.3659 65.1108 16.0692C65.2567 15.7726 65.4589 15.5423 65.7174 15.3782C65.9776 15.2141 66.28 15.1321 66.6247 15.1321C66.9694 15.1321 67.271 15.2141 67.5295 15.3782C67.7897 15.5423 67.9919 15.7726 68.1361 16.0692C68.2819 16.3659 68.3548 16.7131 68.3548 17.1108C68.3548 17.5052 68.2819 17.8499 68.1361 18.1449C67.9919 18.4399 67.7897 18.6694 67.5295 18.8335C67.271 18.9975 66.9694 19.0795 66.6247 19.0795ZM66.6247 18.5526C66.8865 18.5526 67.102 18.4854 67.271 18.3512C67.44 18.217 67.5651 18.0405 67.6464 17.8217C67.7276 17.603 67.7682 17.366 67.7682 17.1108C67.7682 16.8556 67.7276 16.6178 67.6464 16.3974C67.5651 16.177 67.44 15.9988 67.271 15.8629C67.102 15.727 66.8865 15.6591 66.6247 15.6591C66.3629 15.6591 66.1474 15.727 65.9784 15.8629C65.8093 15.9988 65.6842 16.177 65.603 16.3974C65.5218 16.6178 65.4812 16.8556 65.4812 17.1108C65.4812 17.366 65.5218 17.603 65.603 17.8217C65.6842 18.0405 65.8093 18.217 65.9784 18.3512C66.1474 18.4854 66.3629 18.5526 66.6247 18.5526ZM69.2503 20.4318V15.1818H69.8171V15.7884H69.8867C69.9298 15.7221 69.9894 15.6375 70.0657 15.5348C70.1435 15.4304 70.2546 15.3376 70.3987 15.2564C70.5446 15.1735 70.7418 15.1321 70.9904 15.1321C71.3119 15.1321 71.5952 15.2125 71.8405 15.3732C72.0858 15.534 72.2772 15.7618 72.4147 16.0568C72.5523 16.3518 72.621 16.6998 72.621 17.1009C72.621 17.5052 72.5523 17.8557 72.4147 18.1523C72.2772 18.4473 72.0866 18.676 71.843 18.8384C71.5994 18.9992 71.3185 19.0795 71.0003 19.0795C70.755 19.0795 70.5587 19.0389 70.4112 18.9577C70.2637 18.8749 70.1502 18.7812 70.0706 18.6768C69.9911 18.5708 69.9298 18.483 69.8867 18.4134H69.837V20.4318H69.2503ZM69.827 17.0909C69.827 17.3793 69.8693 17.6336 69.9538 17.854C70.0383 18.0728 70.1618 18.2443 70.3242 18.3686C70.4866 18.4912 70.6854 18.5526 70.9208 18.5526C71.166 18.5526 71.3707 18.4879 71.5348 18.3587C71.7005 18.2277 71.8248 18.0521 71.9076 17.8317C71.9921 17.6096 72.0344 17.3627 72.0344 17.0909C72.0344 16.8224 71.993 16.5805 71.9101 16.3651C71.8289 16.148 71.7054 15.9764 71.5397 15.8505C71.3757 15.7229 71.1693 15.6591 70.9208 15.6591C70.6821 15.6591 70.4816 15.7196 70.3192 15.8406C70.1568 15.9599 70.0342 16.1272 69.9513 16.3427C69.8684 16.5565 69.827 16.8059 69.827 17.0909ZM75.1168 19.0795C74.7489 19.0795 74.4315 18.9983 74.1647 18.8359C73.8996 18.6719 73.6949 18.4432 73.5507 18.1499C73.4082 17.8549 73.337 17.5118 73.337 17.1207C73.337 16.7296 73.4082 16.3849 73.5507 16.0866C73.6949 15.7867 73.8954 15.553 74.1523 15.3857C74.4108 15.2166 74.7124 15.1321 75.0571 15.1321C75.256 15.1321 75.4524 15.1652 75.6463 15.2315C75.8402 15.2978 76.0166 15.4055 76.1757 15.5547C76.3348 15.7022 76.4616 15.8977 76.5561 16.1413C76.6505 16.3849 76.6978 16.6849 76.6978 17.0412V17.2898H73.7546V16.7827H76.1012C76.1012 16.5672 76.0581 16.375 75.9719 16.206C75.8874 16.0369 75.7664 15.9035 75.609 15.8058C75.4532 15.708 75.2693 15.6591 75.0571 15.6591C74.8235 15.6591 74.6213 15.7171 74.4506 15.8331C74.2816 15.9474 74.1515 16.0966 74.0603 16.2805C73.9692 16.4645 73.9236 16.6617 73.9236 16.8722V17.2102C73.9236 17.4986 73.9733 17.743 74.0728 17.9435C74.1738 18.1424 74.3139 18.294 74.4929 18.3984C74.6718 18.5012 74.8798 18.5526 75.1168 18.5526C75.2709 18.5526 75.4101 18.531 75.5344 18.4879C75.6603 18.4432 75.7689 18.3769 75.86 18.2891C75.9512 18.1996 76.0216 18.0885 76.0713 17.956L76.6381 18.1151C76.5784 18.3073 76.4782 18.4763 76.3373 18.6222C76.1965 18.7663 76.0224 18.879 75.8153 18.9602C75.6081 19.0398 75.3753 19.0795 75.1168 19.0795ZM77.5902 19V15.1818H78.1569V15.7585H78.1967C78.2663 15.5696 78.3922 15.4163 78.5745 15.2987C78.7568 15.181 78.9623 15.1222 79.191 15.1222C79.2341 15.1222 79.288 15.123 79.3526 15.1246C79.4172 15.1263 79.4661 15.1288 79.4992 15.1321V15.7287C79.4794 15.7237 79.4338 15.7163 79.3625 15.7063C79.2929 15.6947 79.2192 15.6889 79.1413 15.6889C78.9557 15.6889 78.79 15.7279 78.6441 15.8058C78.5 15.882 78.3856 15.988 78.3011 16.1239C78.2182 16.2582 78.1768 16.4115 78.1768 16.5838V19H77.5902Z" fill="url(#paint1_linear_1_4)"/>
<defs>
<linearGradient id="paint0_linear_1_4" x1="0" y1="6" x2="93" y2="6" gradientUnits="userSpaceOnUse">
<stop stop-color="#00C0FD"/>
<stop offset="1" stop-color="#E70FAA"/>
</linearGradient>
<linearGradient id="paint1_linear_1_4" x1="13" y1="16" x2="80" y2="16" gradientUnits="userSpaceOnUse">
<stop stop-color="#00C0FD"/>
<stop offset="1" stop-color="#E70FAA"/>
</linearGradient>
</defs>
</svg>
